<!DOCTYPE svg PUBLIC "-//W3C//DTD SVG 1.1//EN" "http://www.w3.org/Graphics/SVG/1.1/DTD/svg11.dtd">
<!-- Uploaded to: SVG Repo, www.svgrepo.com, Transformed by: SVG Repo Mixer Tools -->
<svg width="75px" height="75px" viewBox="-2.4 -2.4 28.80 28.80" fill="none" xmlns="http://www.w3.org/2000/svg">
<g id="SVGRepo_bgCarrier" stroke-width="0">
<path transform="translate(-2.4, -2.4), scale(0.8999999999999999)" d="M16,26.970414582639933C17.741279471114996,26.61966670356969,19.352550230126347,26.038362366090475,21.0992842677809,25.715874423838635C23.599087577637636,25.25435228706702,26.826355289068584,26.53347969050457,28.53942890544799,24.655342832987067C30.16448825867588,22.87370085463388,28.46272725250854,19.93527141551947,28.569214474374085,17.526178949024448C28.66683462695823,15.317688859335536,30.188079443921083,12.963427985002648,29.142328123693765,11.015772382313223C28.07296316363089,9.024137645162256,25.178865275312504,9.022478101519898,23.31586415309825,7.742096454250184C21.71638228789461,6.642823243446422,20.64749296708168,4.962499770742818,18.9543148172222,4.013873615745725C16.918033082860234,2.873018997276355,14.799927737224973,1.6132501126311198,12.466375671010839,1.6635225349599825C9.990171866726328,1.7168681470950842,7.22784752883321,2.40380828723175,5.635419104525521,4.300806639403961C4.034002444952255,6.2085123283879655,4.987437372140776,9.161450568050068,4.191140247449777,11.521490229273917C3.4320829699997284,13.77115963580086,0.44322580131985523,15.523797433408607,1.0766205527213284,17.81202632886689C1.7470472587616692,20.234038443198497,5.504411714683696,20.205409628539275,7.126276600834055,22.125089013544397C8.52857808129557,23.78488772217404,7.787977060372478,26.971705756642734,9.695071368815269,28.013037833349447C11.592262670269289,29.048962564028432,13.880971007433839,27.39725297197385,16,26.970414582639933" fill="#84BF31 " strokewidth="0"/>
</g>
<g id="SVGRepo_tracerCarrier" stroke-linecap="round" stroke-linejoin="round"/>
<g id="SVGRepo_iconCarrier"> <path d="M20.6211 8.45C19.5711 3.83 15.5411 1.75 12.0011 1.75C12.0011 1.75 12.0011 1.75 11.9911 1.75C8.46107 1.75 4.42107 3.82 3.37107 8.44C2.20107 13.6 5.36107 17.97 8.22107 20.72C9.28107 21.74 10.6411 22.25 12.0011 22.25C13.3611 22.25 14.7211 21.74 15.7711 20.72C18.6311 17.97 21.7911 13.61 20.6211 8.45ZM12.0011 13.46C10.2611 13.46 8.85107 12.05 8.85107 10.31C8.85107 8.57 10.2611 7.16 12.0011 7.16C13.7411 7.16 15.1511 8.57 15.1511 10.31C15.1511 12.05 13.7411 13.46 12.0011 13.46Z" fill="#292D32"/> </g>
</svg>