<!DOCTYPE svg PUBLIC "-//W3C//DTD SVG 1.1//EN" "http://www.w3.org/Graphics/SVG/1.1/DTD/svg11.dtd">
<!-- Uploaded to: SVG Repo, www.svgrepo.com, Transformed by: SVG Repo Mixer Tools -->
<svg width="75px" height="75px" viewBox="-2.4 -2.4 28.80 28.80" fill="none" xmlns="http://www.w3.org/2000/svg">
<g id="SVGRepo_bgCarrier" stroke-width="0">
<path transform="translate(-2.4, -2.4), scale(0.8999999999999999)" d="M16,28.80748851703746C18.021410522577522,28.778035387055304,20.14513392586375,30.278600200594703,21.968687214724703,29.40589097620362C23.80402557335167,28.527541697772044,24.268734024644928,26.12382377707698,25.287651845265042,24.36263928350694C26.15435552487037,22.864554697929652,26.6092697906796,21.204641171744598,27.552849548958186,19.753748366071964C28.818089256538162,17.808256028966156,31.838118968977312,16.659163174328157,31.80669583508957,14.33864932217576C31.7765679669136,12.113787356214083,29.083464537017164,10.88043724589511,27.412791275525173,9.410821884870531C26.054304062180172,8.215822406214627,24.463775229927446,7.412842741575602,22.899614845148044,6.503494868923722C21.45721076555583,5.664931832776657,20.052244633709122,4.846403085838668,18.501737881701313,4.230248635725186C16.755114527936595,3.536159589869263,14.980851942909009,2.1720364096679314,13.15865988624053,2.6325457495382416C11.321173884511467,3.0969202168620957,10.86103614109768,5.747582267967827,9.163419310337872,6.590253940906699C7.026350334009848,7.651063103986266,3.5149361006523945,6.039169682230233,2.2369688593418555,8.053910266075809C0.9892818496130935,10.02091346708089,4.244908802562637,12.422328326983363,3.9950864378958553,14.738232740624486C3.744275453271505,17.06330186346288,0.4208914652086225,18.623854348731538,0.8487548584729598,20.92293796893526C1.2529192218350462,23.094677085447543,4.318338811823062,23.554597803304134,5.919123086459489,25.076862343020593C7.395839123782843,26.481144290604384,8.042219008181508,28.87370360171522,9.953366497430927,29.58096120509136C11.880080005120227,30.293979318819435,13.94580334051308,28.837419360151717,16,28.80748851703746" fill="#84BF31" strokewidth="0"/>
</g>
<g id="SVGRepo_tracerCarrier" stroke-linecap="round" stroke-linejoin="round"/>
<g id="SVGRepo_iconCarrier"> <path d="M20.6211 8.45C19.5711 3.83 15.5411 1.75 12.0011 1.75C12.0011 1.75 12.0011 1.75 11.9911 1.75C8.46107 1.75 4.42107 3.82 3.37107 8.44C2.20107 13.6 5.36107 17.97 8.22107 20.72C9.28107 21.74 10.6411 22.25 12.0011 22.25C13.3611 22.25 14.7211 21.74 15.7711 20.72C18.6311 17.97 21.7911 13.61 20.6211 8.45ZM12.0011 13.46C10.2611 13.46 8.85107 12.05 8.85107 10.31C8.85107 8.57 10.2611 7.16 12.0011 7.16C13.7411 7.16 15.1511 8.57 15.1511 10.31C15.1511 12.05 13.7411 13.46 12.0011 13.46Z" fill="#1C2430"/> </g>
</svg>