<!DOCTYPE svg PUBLIC "-//W3C//DTD SVG 1.1//EN" "http://www.w3.org/Graphics/SVG/1.1/DTD/svg11.dtd">
<!-- Uploaded to: SVG Repo, www.svgrepo.com, Transformed by: SVG Repo Mixer Tools -->
<svg width="75px" height="75px" viewBox="-2.4 -2.4 28.80 28.80" fill="none" xmlns="http://www.w3.org/2000/svg">
<g id="SVGRepo_bgCarrier" stroke-width="0">
<path transform="translate(-2.4, -2.4), scale(0.8999999999999999)" d="M16,31.22224576239075C18.56246092768347,30.726553099718004,19.88088956200891,27.92226346891867,22.019834869674273,26.426659847450615C23.933382780112513,25.088659677718457,26.374500061607407,24.630935859367508,27.9242855651585,22.88448948093823C29.647382971787152,20.94273869117271,31.502930409647764,18.585790125082625,31.272387070315226,16C31.041148142634146,13.406408107631469,28.18070764259116,11.969620109325312,26.756771884735034,9.78957485673683C25.427941091435216,7.755135278656255,25.266107051668243,4.810537997839955,23.165693624743398,3.588654570472052C21.06521636781326,2.3667340109735724,18.42982954523726,3.5639705818823777,16,3.5319871221269885C13.532618689452775,3.499509374458733,10.854779016936831,2.153099574830184,8.724559972860988,3.3985682255749303C6.593795644538696,4.644355685991659,6.55742132775421,7.699148812812976,5.270371578261161,9.805246142404414C3.942287899024789,11.978490410091363,1.0978390590865212,13.454158938181923,1.0237432154161592,15.999999999999996C0.9498526809951265,18.53878689128129,3.64522067887712,20.200295422093067,4.903616340966195,22.406500092574518C6.169984681224986,24.62668236989631,6.465205668166675,27.458544917331945,8.466456944388995,29.04847933332593C10.548336338470307,30.70247038278916,13.389465370922728,31.727237993611443,16,31.22224576239075" fill="#84BF31 " strokewidth="0"/>
</g>
<g id="SVGRepo_tracerCarrier" stroke-linecap="round" stroke-linejoin="round"/>
<g id="SVGRepo_iconCarrier"> <path d="M12 2C6.49 2 2 6.49 2 12C2 17.51 6.49 22 12 22C17.51 22 22 17.51 22 12C22 6.49 17.51 2 12 2ZM16.35 15.57C16.21 15.81 15.96 15.94 15.7 15.94C15.57 15.94 15.44 15.91 15.32 15.83L12.22 13.98C11.45 13.52 10.88 12.51 10.88 11.62V7.52C10.88 7.11 11.22 6.77 11.63 6.77C12.04 6.77 12.38 7.11 12.38 7.52V11.62C12.38 11.98 12.68 12.51 12.99 12.69L16.09 14.54C16.45 14.75 16.57 15.21 16.35 15.57Z" fill="#292D32"/> </g>
</svg>