<!DOCTYPE svg PUBLIC "-//W3C//DTD SVG 1.1//EN" "http://www.w3.org/Graphics/SVG/1.1/DTD/svg11.dtd">
<!-- Uploaded to: SVG Repo, www.svgrepo.com, Transformed by: SVG Repo Mixer Tools -->
<svg width="75px" height="75px" viewBox="-2.4 -2.4 28.80 28.80" fill="none" xmlns="http://www.w3.org/2000/svg">
<g id="SVGRepo_bgCarrier" stroke-width="0">
<path transform="translate(-2.4, -2.4), scale(0.8999999999999999)" d="M16,31.664777255484037C18.26749545975303,32.22041495198937,20.985371694635628,31.475346951067564,22.6784464899138,29.867937032169422C24.415606642485983,28.21867235245966,23.52257388270335,25.061828859987482,24.967308345325783,23.151189775300416C26.35830393813986,21.311619518608484,29.841805750594734,21.50545829606373,30.63833666555547,19.341104819839103C31.400461565493696,17.270240217452706,29.012110241305766,15.28863024153071,28.662763857142153,13.10980678186386C28.284233156997466,10.748964915262217,29.705677904238577,8.09551085045247,28.50383518111779,6.0285241840869705C27.322498106634747,3.9968041141770647,24.820698008790743,2.8645757506843195,22.49784544945919,2.507084892577806C20.26540134769185,2.1635080459073075,18.25387696761017,3.9562094124812037,16,4.104163229465485C13.929095842167772,4.240105953564029,11.80279801356988,2.504590359403309,9.900392197514414,3.334033887439107C8.01020107919296,4.158151841984282,7.600463952017403,6.664986301492532,6.35579989622385,8.3090070601816C5.142731543022127,9.911294476685239,3.072236175116453,10.987949234730968,2.6227590962739686,12.946732058379538C2.1732855455466797,14.90549950680261,3.6001024694162407,16.770845598634075,3.9603989433094906,18.74796037545036C4.337830221834647,20.81910181611249,3.46476684667838,23.304209808134463,4.805956095329448,24.926952127956042C6.151788444774304,26.55531226506989,8.921433912864675,25.850939734394437,10.731393007720015,26.940375149600005C12.778053612789556,28.172283954835752,13.679832777870487,31.09623262388789,16,31.664777255484037" fill="#84BF31" strokewidth="0"/>
</g>
<g id="SVGRepo_tracerCarrier" stroke-linecap="round" stroke-linejoin="round"/>
<g id="SVGRepo_iconCarrier"> <path d="M17 22.75H7C6.59 22.75 6.25 22.41 6.25 22C6.25 21.59 6.59 21.25 7 21.25H17C17.41 21.25 17.75 21.59 17.75 22C17.75 22.41 17.41 22.75 17 22.75Z" fill="#292D32"/> <path d="M18 2H6C3.79 2 2 3.79 2 6V15C2 17.21 3.79 19 6 19H18C20.21 19 22 17.21 22 15V6C22 3.79 20.21 2 18 2ZM9.99 7.32C10.55 7.32 11 7.77 11 8.32C11 8.87 10.55 9.32 10 9.32C9.45 9.32 9 8.87 9 8.32C9 7.77 9.44 7.32 9.99 7.32ZM6.84 7.32C7.4 7.32 7.85 7.77 7.85 8.32C7.85 8.87 7.4 9.32 6.85 9.32C6.3 9.32 5.85 8.87 5.85 8.32C5.85 7.77 6.28 7.32 6.84 7.32ZM17.26 14.86H6.76C6.34 14.86 6 14.52 6 14.11C6 13.7 6.33 13.36 6.74 13.36H17.27C17.68 13.36 18.02 13.7 18.02 14.11C18.02 14.52 17.68 14.86 17.26 14.86ZM17.26 9.07H13.58C13.17 9.07 12.83 8.73 12.83 8.32C12.83 7.91 13.17 7.57 13.58 7.57H17.26C17.67 7.57 18.01 7.91 18.01 8.32C18.01 8.73 17.68 9.07 17.26 9.07Z" fill="#292D32"/> </g>
</svg>