<!DOCTYPE svg PUBLIC "-//W3C//DTD SVG 1.1//EN" "http://www.w3.org/Graphics/SVG/1.1/DTD/svg11.dtd">
<!-- Uploaded to: SVG Repo, www.svgrepo.com, Transformed by: SVG Repo Mixer Tools -->
<svg width="75px" height="75px" viewBox="-2.4 -2.4 28.80 28.80" fill="none" xmlns="http://www.w3.org/2000/svg">
<g id="SVGRepo_bgCarrier" stroke-width="0">
<path transform="translate(-2.4, -2.4), scale(0.8999999999999999)" d="M16,29.69798215159348C18.594499904824396,29.49219205346727,21.19931743087398,28.88821092239296,23.266532328608594,27.306945009522938C25.2494283792783,25.79017675426091,26.123438077918422,23.366982448309244,27.213052522730408,21.120829503919836C28.329375236776404,18.819619600745465,30.11827248951203,16.553643471455224,29.707628688376026,14.029140532468743C29.29810415650096,11.51151849252649,26.57636457988991,10.195172413985958,25.097765535819864,8.116741288091806C23.411915174432725,5.746981968444263,23.19109345912767,1.8306999873236596,20.414412854533225,0.9658904741275229C17.64760792479411,0.10415678375018411,15.279204711316474,3.268804454878394,12.536524907510556,4.2044870752979175C9.955544523672012,5.085004912433064,6.88960320023255,4.543532038452979,4.798096945471515,6.2934957493818615C2.594017129020148,8.137649782390659,0.9310854810477563,10.972717900761792,1.0140484812169817,13.845345456737997C1.0949127607863678,16.64530396006313,4.023320384594507,18.39043076078351,5.220598618210781,20.92278766362357C6.394887328515353,23.40651954646678,5.822250950281164,26.787124691890625,7.952861363006292,28.521592134706406C10.098664270575986,30.26842734195517,13.24173265092706,29.916761927753257,16,29.69798215159348" fill="#84BF31" strokewidth="0"/>
</g>
<g id="SVGRepo_tracerCarrier" stroke-linecap="round" stroke-linejoin="round"/>
<g id="SVGRepo_iconCarrier"> <path d="M17 3.5H7C4 3.5 2 5 2 8.5V15.5C2 19 4 20.5 7 20.5H17C20 20.5 22 19 22 15.5V8.5C22 5 20 3.5 17 3.5ZM17.47 9.59L14.34 12.09C13.68 12.62 12.84 12.88 12 12.88C11.16 12.88 10.31 12.62 9.66 12.09L6.53 9.59C6.21 9.33 6.16 8.85 6.41 8.53C6.67 8.21 7.14 8.15 7.46 8.41L10.59 10.91C11.35 11.52 12.64 11.52 13.4 10.91L16.53 8.41C16.85 8.15 17.33 8.2 17.58 8.53C17.84 8.85 17.79 9.33 17.47 9.59Z" fill="#272929 "/> </g>
</svg>