<!DOCTYPE svg PUBLIC "-//W3C//DTD SVG 1.1//EN" "http://www.w3.org/Graphics/SVG/1.1/DTD/svg11.dtd">
<!-- Uploaded to: SVG Repo, www.svgrepo.com, Transformed by: SVG Repo Mixer Tools -->
<svg width="75px" height="75px" viewBox="-2.4 -2.4 28.80 28.80" fill="none" xmlns="http://www.w3.org/2000/svg" stroke="#000000" stroke-width="0.00024000000000000003">
<g id="SVGRepo_bgCarrier" stroke-width="0">
<path transform="translate(-2.4, -2.4), scale(0.8999999999999999)" d="M16,31.623369336128235C18.199447450374723,31.968282403340808,19.017620461668763,28.24998061453355,21.07100860689288,27.389671811866208C23.187639610605036,26.502866125017643,26.17148303879974,28.23617247500659,27.841497833591283,26.6621325399097C29.45549728503522,25.140888776249305,28.162224107268887,22.281698840466767,28.75730745238847,20.145100462179855C29.324173150618144,18.109815251331604,31.259980635248716,16.50909672676083,31.257753149767357,14.396345523321237C31.255521980752263,12.280100519182394,29.80945520725725,10.470724124458116,28.745179212703412,8.641567350675665C27.683224855354993,6.816400743393529,26.850513464959775,4.625418394138484,24.990737843024505,3.6253109811650805C23.123391104459756,2.621132147007142,20.828649909754247,3.35062334087472,18.711024955033356,3.245630369002633C16.87018927544472,3.1543607566487974,15.074328553659958,2.810899156218189,13.24590375010913,3.042995858361701C11.330981264069733,3.2860724087383284,9.481444067096763,3.795042277519059,7.744779876892213,4.637664273044624C5.828647577762255,5.567363423110995,3.394717164763763,6.279276770261286,2.548083352938212,8.233532302702459C1.6776207585978489,10.242790989294182,3.5673540991984374,12.492278011995408,3.3962221652200935,14.675289569216964C3.2307241998058744,16.786432491505277,1.174671033624026,18.60796524374632,1.571743410122874,20.6880247483533C1.9622123380703242,22.733492156568104,3.6134708640700772,24.52823481515789,5.460633727568323,25.48968801603372C7.297401015558226,26.445730292109715,9.801224626804716,24.861470943244704,11.590892135815693,25.903018403068206C13.694614630929419,27.127339015655146,13.595336017691457,31.24627461189996,16,31.623369336128235" fill="#84BF31" strokewidth="0"/>
</g>
<g id="SVGRepo_tracerCarrier" stroke-linecap="round" stroke-linejoin="round"/>
<g id="SVGRepo_iconCarrier"> <path d="M17 3.5H7C4 3.5 2 5 2 8.5V15.5C2 19 4 20.5 7 20.5H17C20 20.5 22 19 22 15.5V8.5C22 5 20 3.5 17 3.5ZM17.47 9.59L14.34 12.09C13.68 12.62 12.84 12.88 12 12.88C11.16 12.88 10.31 12.62 9.66 12.09L6.53 9.59C6.21 9.33 6.16 8.85 6.41 8.53C6.67 8.21 7.14 8.15 7.46 8.41L10.59 10.91C11.35 11.52 12.64 11.52 13.4 10.91L16.53 8.41C16.85 8.15 17.33 8.2 17.58 8.53C17.84 8.85 17.79 9.33 17.47 9.59Z" fill="#1C2430"/> </g>
</svg>