<!DOCTYPE svg PUBLIC "-//W3C//DTD SVG 1.1//EN" "http://www.w3.org/Graphics/SVG/1.1/DTD/svg11.dtd">
<!-- Uploaded to: SVG Repo, www.svgrepo.com, Transformed by: SVG Repo Mixer Tools -->
<svg width="75px" height="75px" viewBox="-2.4 -2.4 28.80 28.80" fill="none" xmlns="http://www.w3.org/2000/svg">
<g id="SVGRepo_bgCarrier" stroke-width="0">
<path transform="translate(-2.4, -2.4), scale(0.8999999999999999)" d="M16,28.513909719056553C18.929432425257822,28.359090612588865,22.09824402649006,29.378327426069703,24.553109790690232,27.772345679711016C27.04476987516574,26.142292960676922,28.289931848273863,23.089470967976677,28.780730674302333,20.152711128328903C29.22804953877432,17.476119402695925,28.329031903889707,14.817186803859624,27.124616747323174,12.385392905752253C26.06097151326173,10.237822796027615,23.984321984219044,9.000475002250514,22.376899081247252,7.222951395902049C20.182995795130136,4.7968848804201025,19.166847358621954,0.9021361221765112,16.000000000000004,0.08354698618252954C12.750834427106483,-0.7563203448951745,8.824389971893556,0.5874216910722825,6.674082841666921,3.163976231458447C4.592553127744724,5.658119863298467,6.323378935983297,9.449392884996511,5.550277431340591,12.604679317273039C4.867916197574635,15.38962428230481,2.2349115802702744,17.543337993021407,2.4503228078143042,20.402556997338912C2.6906678589578856,23.59273025645063,4.018876139527255,27.069268316435817,6.7638275598887105,28.712500760923298C9.472288902771915,30.333888855536557,12.847713893104228,28.680506536307643,16,28.513909719056553" fill="#EF4040" strokewidth="0"/>
</g>
<g id="SVGRepo_tracerCarrier" stroke-linecap="round" stroke-linejoin="round"/>
<g id="SVGRepo_iconCarrier"> <path d="M12 2C9.38 2 7.25 4.13 7.25 6.75C7.25 9.32 9.26 11.4 11.88 11.49C11.96 11.48 12.04 11.48 12.1 11.49C12.12 11.49 12.13 11.49 12.15 11.49C12.16 11.49 12.16 11.49 12.17 11.49C14.73 11.4 16.74 9.32 16.75 6.75C16.75 4.13 14.62 2 12 2Z" fill="#1C2430"/> <path d="M17.0809 14.1489C14.2909 12.2889 9.74094 12.2889 6.93094 14.1489C5.66094 14.9989 4.96094 16.1489 4.96094 17.3789C4.96094 18.6089 5.66094 19.7489 6.92094 20.5889C8.32094 21.5289 10.1609 21.9989 12.0009 21.9989C13.8409 21.9989 15.6809 21.5289 17.0809 20.5889C18.3409 19.7389 19.0409 18.5989 19.0409 17.3589C19.0309 16.1289 18.3409 14.9889 17.0809 14.1489ZM13.9409 18.2589C14.2309 18.5489 14.2309 19.0289 13.9409 19.3189C13.7909 19.4689 13.6009 19.5389 13.4109 19.5389C13.2209 19.5389 13.0309 19.4689 12.8809 19.3189L12.0009 18.4389L11.1209 19.3189C10.9709 19.4689 10.7809 19.5389 10.5909 19.5389C10.4009 19.5389 10.2109 19.4689 10.0609 19.3189C9.77094 19.0289 9.77094 18.5489 10.0609 18.2589L10.9409 17.3789L10.0609 16.4989C9.77094 16.2089 9.77094 15.7289 10.0609 15.4389C10.3509 15.1489 10.8309 15.1489 11.1209 15.4389L12.0009 16.3189L12.8809 15.4389C13.1709 15.1489 13.6509 15.1489 13.9409 15.4389C14.2309 15.7289 14.2309 16.2089 13.9409 16.4989L13.0609 17.3789L13.9409 18.2589Z" fill="#1C2430"/> </g>
</svg>