<!DOCTYPE svg PUBLIC "-//W3C//DTD SVG 1.1//EN" "http://www.w3.org/Graphics/SVG/1.1/DTD/svg11.dtd">
<!-- Uploaded to: SVG Repo, www.svgrepo.com, Transformed by: SVG Repo Mixer Tools -->
<svg width="75px" height="75px" viewBox="-2.4 -2.4 28.80 28.80" fill="none" xmlns="http://www.w3.org/2000/svg">
<g id="SVGRepo_bgCarrier" stroke-width="0">
<path transform="translate(-2.4, -2.4), scale(0.8999999999999999)" d="M16,31.808935404289514C18.623733428758435,31.75257641257194,19.075981788207052,27.502853901368624,21.34612543744971,26.18619097831841C23.475225929663928,24.951331819303682,27.1133978971238,26.660163584681488,28.445617155601507,24.590589257460913C29.797688753909696,22.49017474189523,27.583576481277255,19.778683132170794,27.04022632084841,17.340526175100017C26.65791413969973,15.624989543059899,26.45731990192636,13.908356556272766,25.7104801426302,12.317300644728277C25.000069825141562,10.803853454493366,23.645546253671498,9.76382463283008,22.805269265160774,8.318438940565347C21.547315373946528,6.154594659749826,21.742676649990678,2.851092334094607,19.528642260124162,1.6837355829137568C17.476649026443727,0.601815552367754,15.067159254799195,2.522985674788573,12.807376655662852,3.047017914452832C10.51640140086634,3.5782835743642067,7.620233603418086,3.025376640339016,6.079833517149028,4.802446811635942C4.49734111622739,6.6280764432164085,5.737232038665836,9.541203462763946,5.147228209139277,11.884086565230511C4.638960296774713,13.90239940289538,2.5855232947852946,15.53231457960219,2.858129703334015,17.595711954670893C3.1309001684583233,19.66035109771283,5.185809575058991,20.94974661636218,6.552541915362822,22.52110947311828C7.788986378964637,23.94267743287966,9.188429671625668,25.097657628247976,10.531957654566188,26.418484238688382C12.384015425266787,28.23924809227057,13.40342762791974,31.864710964111303,16,31.808935404289514" fill="#84BF31" strokewidth="0"/>
</g>
<g id="SVGRepo_tracerCarrier" stroke-linecap="round" stroke-linejoin="round" stroke="#CCCCCC" stroke-width="0.4800000000000001"/>
<g id="SVGRepo_iconCarrier"> <path d="M18.75 8V10.1C18.31 10.04 17.81 10.01 17.25 10V8C17.25 4.85 16.36 2.75 12 2.75C7.64 2.75 6.75 4.85 6.75 8V10C6.19 10.01 5.69 10.04 5.25 10.1V8C5.25 5.1 5.95 1.25 12 1.25C18.05 1.25 18.75 5.1 18.75 8Z" fill="#272929"/> <path d="M18.75 10.1C18.31 10.04 17.81 10.01 17.25 10H6.75C6.19 10.01 5.69 10.04 5.25 10.1C2.7 10.41 2 11.66 2 15V17C2 21 3 22 7 22H17C21 22 22 21 22 17V15C22 11.66 21.3 10.41 18.75 10.1ZM8.71 16.71C8.52 16.89 8.26 17 8 17C7.87 17 7.74 16.97 7.62 16.92C7.49 16.87 7.39 16.8 7.29 16.71C7.11 16.52 7 16.26 7 16C7 15.87 7.03 15.74 7.08 15.62C7.13 15.5 7.2 15.39 7.29 15.29C7.39 15.2 7.49 15.13 7.62 15.08C7.99 14.92 8.43 15.01 8.71 15.29C8.8 15.39 8.87 15.5 8.92 15.62C8.97 15.74 9 15.87 9 16C9 16.26 8.89 16.52 8.71 16.71ZM12.92 16.38C12.87 16.5 12.8 16.61 12.71 16.71C12.52 16.89 12.26 17 12 17C11.73 17 11.48 16.89 11.29 16.71C11.2 16.61 11.13 16.5 11.08 16.38C11.03 16.26 11 16.13 11 16C11 15.73 11.11 15.48 11.29 15.29C11.66 14.92 12.33 14.92 12.71 15.29C12.89 15.48 13 15.73 13 16C13 16.13 12.97 16.26 12.92 16.38ZM16.71 16.71C16.52 16.89 16.26 17 16 17C15.74 17 15.48 16.89 15.29 16.71C15.11 16.52 15 16.27 15 16C15 15.73 15.11 15.48 15.29 15.29C15.67 14.92 16.34 14.92 16.71 15.29C16.75 15.34 16.79 15.39 16.83 15.45C16.87 15.5 16.9 15.56 16.92 15.62C16.95 15.68 16.97 15.74 16.98 15.8C16.99 15.87 17 15.94 17 16C17 16.26 16.89 16.52 16.71 16.71Z" fill="#272929"/> </g>
</svg>