<svg xmlns="http://www.w3.org/2000/svg" xmlns:xlink="http://www.w3.org/1999/xlink" width="1024" zoomAndPan="magnify" viewBox="0 0 768 767.999994" height="1024" preserveAspectRatio="xMidYMid meet" version="1.0"><defs><g/><clipPath id="0f87366ea3"><path d="M 199 202 L 317 202 L 317 375 L 199 375 Z M 199 202 " clip-rule="nonzero"/></clipPath><clipPath id="6c6b70f530"><path d="M 28.488281 312.472656 L 202.96875 137.996094 L 370.550781 305.578125 L 196.074219 480.058594 Z M 28.488281 312.472656 " clip-rule="nonzero"/></clipPath><clipPath id="9401a7159f"><path d="M 28.488281 312.472656 L 202.96875 137.996094 L 370.550781 305.578125 L 196.074219 480.058594 Z M 28.488281 312.472656 " clip-rule="nonzero"/></clipPath><clipPath id="3c8bb35230"><path d="M 28.488281 312.472656 L 202.96875 137.996094 L 370.550781 305.578125 L 196.074219 480.058594 Z M 28.488281 312.472656 " clip-rule="nonzero"/></clipPath><clipPath id="f9345702b3"><path d="M 28 256 L 242 256 L 242 414 L 28 414 Z M 28 256 " clip-rule="nonzero"/></clipPath><clipPath id="fab3c88d1e"><path d="M 28.488281 312.472656 L 202.96875 137.996094 L 370.550781 305.578125 L 196.074219 480.058594 Z M 28.488281 312.472656 " clip-rule="nonzero"/></clipPath><clipPath id="da02cd0240"><path d="M 28.488281 312.472656 L 202.96875 137.996094 L 370.550781 305.578125 L 196.074219 480.058594 Z M 28.488281 312.472656 " clip-rule="nonzero"/></clipPath><clipPath id="b044c494b2"><path d="M 28.488281 312.472656 L 202.96875 137.996094 L 370.550781 305.578125 L 196.074219 480.058594 Z M 28.488281 312.472656 " clip-rule="nonzero"/></clipPath></defs><g clip-path="url(#0f87366ea3)"><g clip-path="url(#6c6b70f530)"><g clip-path="url(#9401a7159f)"><g clip-path="url(#3c8bb35230)"><path fill="#80cc28" d="M 315.007812 301.070312 C 306.78125 241.992188 207.890625 202.65625 207.890625 202.65625 C 207.890625 202.65625 219.316406 255.484375 205.582031 287.171875 C 196.402344 308.335938 184.648438 376.097656 265.414062 373.964844 C 266.273438 373.945312 267.167969 373.902344 268.066406 373.832031 C 277.824219 343.484375 287.515625 275.808594 214.242188 210.316406 C 214.242188 210.316406 307.085938 275.519531 272.859375 373.296875 C 294.574219 370.035156 322.351562 353.835938 315.007812 301.070312 " fill-opacity="1" fill-rule="nonzero"/></g></g></g></g><g clip-path="url(#f9345702b3)"><g clip-path="url(#fab3c88d1e)"><g clip-path="url(#da02cd0240)"><g clip-path="url(#b044c494b2)"><path fill="#27963c" d="M 189.960938 315.945312 C 154.492188 300.066406 105.605469 292.363281 41.132812 310.777344 C 41.132812 310.777344 118.386719 278.554688 191.300781 308.792969 C 192.515625 303.453125 194.058594 298.832031 195.539062 295.417969 C 199.785156 285.617188 201.621094 273.804688 202.136719 262.148438 C 133.015625 236.503906 28.601562 312.402344 28.601562 312.402344 C 28.601562 312.402344 93.046875 335.914062 117.722656 372.097656 C 133.148438 394.722656 190.84375 447.410156 241.242188 381.820312 C 192.015625 377.449219 186.171875 341.714844 189.960938 315.945312 " fill-opacity="1" fill-rule="nonzero"/></g></g></g></g><g fill="#000000" fill-opacity="1"><g transform="translate(224.082057, 503.709012)"><g><path d="M 9.609375 -61.09375 C 9.609375 -69.789062 11.09375 -78.023438 14.0625 -85.796875 C 17.039062 -93.578125 21.195312 -100.363281 26.53125 -106.15625 C 31.875 -111.957031 38.28125 -116.535156 45.75 -119.890625 C 53.226562 -123.253906 61.394531 -124.9375 70.25 -124.9375 C 80.613281 -124.9375 89.492188 -123.066406 96.890625 -119.328125 C 104.296875 -115.585938 110.398438 -110.816406 115.203125 -105.015625 C 120.015625 -99.222656 123.5625 -92.859375 125.84375 -85.921875 C 128.132812 -78.984375 129.28125 -72.304688 129.28125 -65.890625 C 129.28125 -60.859375 127.710938 -56.816406 124.578125 -53.765625 C 121.453125 -50.710938 117.601562 -49.1875 113.03125 -49.1875 L 44.15625 -49.1875 C 45.832031 -41.257812 49.300781 -35.273438 54.5625 -31.234375 C 59.832031 -27.191406 66.359375 -25.171875 74.140625 -25.171875 C 79.015625 -25.171875 83.472656 -25.894531 87.515625 -27.34375 C 91.554688 -28.789062 95.332031 -30.8125 98.84375 -33.40625 C 100.0625 -34.320312 101.316406 -35.007812 102.609375 -35.46875 C 103.910156 -35.925781 105.476562 -36.15625 107.3125 -36.15625 C 111.28125 -36.15625 114.519531 -34.859375 117.03125 -32.265625 C 119.550781 -29.671875 120.8125 -26.390625 120.8125 -22.421875 C 120.8125 -20.128906 120.351562 -18.144531 119.4375 -16.46875 C 118.519531 -14.789062 117.453125 -13.34375 116.234375 -12.125 C 110.898438 -7.550781 104.757812 -3.925781 97.8125 -1.25 C 90.875 1.414062 82.828125 2.75 73.671875 2.75 C 64.523438 2.75 56.019531 1.222656 48.15625 -1.828125 C 40.300781 -4.878906 33.515625 -9.226562 27.796875 -14.875 C 22.078125 -20.519531 17.613281 -27.226562 14.40625 -35 C 11.207031 -42.78125 9.609375 -51.328125 9.609375 -60.640625 Z M 43.703125 -70.9375 L 96.09375 -70.9375 C 95.03125 -78.707031 92.285156 -84.992188 87.859375 -89.796875 C 83.441406 -94.609375 77.570312 -97.015625 70.25 -97.015625 C 62.925781 -97.015625 57.015625 -94.648438 52.515625 -89.921875 C 48.015625 -85.191406 45.078125 -78.863281 43.703125 -70.9375 Z M 43.703125 -70.9375 "/></g></g></g><g fill="#000000" fill-opacity="1"><g transform="translate(340.545358, 503.709012)"><g><path d="M 73.90625 -124.9375 C 83.207031 -124.9375 91.210938 -123.753906 97.921875 -121.390625 C 104.640625 -119.023438 110.59375 -115.628906 115.78125 -111.203125 C 117 -110.285156 118.21875 -108.832031 119.4375 -106.84375 C 120.65625 -104.863281 121.265625 -102.347656 121.265625 -99.296875 C 121.265625 -94.878906 119.738281 -91.179688 116.6875 -88.203125 C 113.644531 -85.234375 109.910156 -83.75 105.484375 -83.75 C 103.191406 -83.75 101.207031 -84.128906 99.53125 -84.890625 C 97.851562 -85.648438 96.484375 -86.410156 95.421875 -87.171875 C 92.367188 -89.617188 89.125 -91.523438 85.6875 -92.890625 C 82.257812 -94.265625 78.253906 -94.953125 73.671875 -94.953125 C 69.398438 -94.953125 65.429688 -94.070312 61.765625 -92.3125 C 58.109375 -90.5625 54.945312 -88.160156 52.28125 -85.109375 C 49.613281 -82.066406 47.554688 -78.523438 46.109375 -74.484375 C 44.660156 -70.441406 43.9375 -66.128906 43.9375 -61.546875 L 43.9375 -61.09375 C 43.9375 -56.363281 44.660156 -51.9375 46.109375 -47.8125 C 47.554688 -43.695312 49.648438 -40.113281 52.390625 -37.0625 C 55.140625 -34.007812 58.421875 -31.609375 62.234375 -29.859375 C 66.046875 -28.109375 70.316406 -27.234375 75.046875 -27.234375 C 79.628906 -27.234375 83.785156 -27.957031 87.515625 -29.40625 C 91.253906 -30.851562 94.726562 -32.945312 97.9375 -35.6875 C 98.84375 -36.457031 100.097656 -37.179688 101.703125 -37.859375 C 103.304688 -38.546875 105.175781 -38.890625 107.3125 -38.890625 C 111.425781 -38.890625 114.894531 -37.441406 117.71875 -34.546875 C 120.539062 -31.648438 121.953125 -28.144531 121.953125 -24.03125 C 121.953125 -21.738281 121.492188 -19.675781 120.578125 -17.84375 C 119.671875 -16.019531 118.453125 -14.421875 116.921875 -13.046875 C 111.734375 -8.316406 105.707031 -4.5 98.84375 -1.59375 C 91.976562 1.300781 83.515625 2.75 73.453125 2.75 C 64.296875 2.75 55.789062 1.070312 47.9375 -2.28125 C 40.082031 -5.644531 33.332031 -10.1875 27.6875 -15.90625 C 22.039062 -21.625 17.613281 -28.332031 14.40625 -36.03125 C 11.207031 -43.738281 9.609375 -51.941406 9.609375 -60.640625 L 9.609375 -61.09375 C 9.609375 -69.789062 11.207031 -78.023438 14.40625 -85.796875 C 17.613281 -93.578125 22.039062 -100.363281 27.6875 -106.15625 C 33.332031 -111.957031 40.117188 -116.535156 48.046875 -119.890625 C 55.984375 -123.253906 64.601562 -124.9375 73.90625 -124.9375 Z M 73.90625 -124.9375 "/></g></g></g><g fill="#000000" fill-opacity="1"><g transform="translate(447.398679, 503.709012)"><g><path d="M 76.1875 -124.9375 C 85.644531 -124.9375 94.414062 -123.296875 102.5 -120.015625 C 110.59375 -116.734375 117.570312 -112.234375 123.4375 -106.515625 C 129.3125 -100.796875 133.925781 -94.082031 137.28125 -86.375 C 140.644531 -78.675781 142.328125 -70.398438 142.328125 -61.546875 L 142.328125 -61.09375 C 142.328125 -52.25 140.644531 -43.972656 137.28125 -36.265625 C 133.925781 -28.566406 129.273438 -21.816406 123.328125 -16.015625 C 117.378906 -10.222656 110.363281 -5.644531 102.28125 -2.28125 C 94.195312 1.070312 85.347656 2.75 75.734375 2.75 C 66.273438 2.75 57.503906 1.109375 49.421875 -2.171875 C 41.335938 -5.453125 34.359375 -9.953125 28.484375 -15.671875 C 22.609375 -21.390625 17.992188 -28.097656 14.640625 -35.796875 C 11.285156 -43.503906 9.609375 -51.785156 9.609375 -60.640625 L 9.609375 -61.09375 C 9.609375 -69.9375 11.285156 -78.207031 14.640625 -85.90625 C 17.992188 -93.613281 22.644531 -100.363281 28.59375 -106.15625 C 34.550781 -111.957031 41.570312 -116.535156 49.65625 -119.890625 C 57.738281 -123.253906 66.582031 -124.9375 76.1875 -124.9375 Z M 76.1875 -27.234375 C 81.226562 -27.234375 85.691406 -28.109375 89.578125 -29.859375 C 93.472656 -31.609375 96.789062 -34.007812 99.53125 -37.0625 C 102.28125 -40.113281 104.378906 -43.660156 105.828125 -47.703125 C 107.273438 -51.742188 108 -56.054688 108 -60.640625 L 108 -61.09375 C 108 -65.664062 107.234375 -69.972656 105.703125 -74.015625 C 104.179688 -78.054688 101.972656 -81.640625 99.078125 -84.765625 C 96.179688 -87.898438 92.785156 -90.378906 88.890625 -92.203125 C 85.003906 -94.035156 80.617188 -94.953125 75.734375 -94.953125 C 70.703125 -94.953125 66.238281 -94.070312 62.34375 -92.3125 C 58.457031 -90.5625 55.140625 -88.160156 52.390625 -85.109375 C 49.648438 -82.066406 47.554688 -78.523438 46.109375 -74.484375 C 44.660156 -70.441406 43.9375 -66.128906 43.9375 -61.546875 L 43.9375 -61.09375 C 43.9375 -56.519531 44.695312 -52.207031 46.21875 -48.15625 C 47.75 -44.113281 49.960938 -40.53125 52.859375 -37.40625 C 55.753906 -34.28125 59.179688 -31.800781 63.140625 -29.96875 C 67.109375 -28.144531 71.457031 -27.234375 76.1875 -27.234375 Z M 76.1875 -27.234375 "/></g></g></g><g fill="#000000" fill-opacity="1"><g transform="translate(575.531301, 503.709012)"><g><path d="M 12.8125 -18.53125 C 12.8125 -24.019531 14.679688 -28.632812 18.421875 -32.375 C 22.160156 -36.113281 26.925781 -37.984375 32.71875 -37.984375 C 38.519531 -37.984375 43.285156 -36.113281 47.015625 -32.375 C 50.753906 -28.632812 52.625 -24.019531 52.625 -18.53125 L 52.625 -18.078125 C 52.625 -12.585938 50.753906 -7.972656 47.015625 -4.234375 C 43.285156 -0.492188 38.519531 1.375 32.71875 1.375 C 26.925781 1.375 22.160156 -0.492188 18.421875 -4.234375 C 14.679688 -7.972656 12.8125 -12.585938 12.8125 -18.078125 Z M 12.8125 -18.53125 "/></g></g></g><g fill="#80cc28" fill-opacity="1"><g transform="translate(575.562661, 452.734967)"><g><path d="M 0.21875 -99.328125 C 0.21875 -103.003906 1.523438 -106.148438 4.140625 -108.765625 C 6.753906 -111.390625 9.898438 -112.703125 13.578125 -112.703125 L 19.953125 -112.703125 L 19.953125 -119.921875 C 19.953125 -131.953125 22.816406 -141.039062 28.546875 -147.1875 C 34.273438 -153.34375 43.15625 -156.421875 55.1875 -156.421875 C 57.726562 -156.421875 60.414062 -156.347656 63.25 -156.203125 C 66.082031 -156.066406 68.703125 -155.570312 71.109375 -154.71875 C 73.515625 -153.875 75.492188 -152.492188 77.046875 -150.578125 C 78.597656 -148.671875 79.375 -146.019531 79.375 -142.625 C 79.375 -138.945312 78.097656 -135.800781 75.546875 -133.1875 C 73.003906 -130.570312 69.894531 -129.265625 66.21875 -129.265625 L 63.46875 -129.265625 C 55.675781 -129.265625 51.78125 -125.160156 51.78125 -116.953125 L 51.78125 -112.5 L 65.796875 -112.5 C 69.472656 -112.5 72.617188 -111.222656 75.234375 -108.671875 C 77.859375 -106.117188 79.171875 -103.003906 79.171875 -99.328125 C 79.171875 -95.648438 77.859375 -92.535156 75.234375 -89.984375 C 72.617188 -87.441406 69.472656 -86.171875 65.796875 -86.171875 L 52.21875 -86.171875 L 52.21875 -14.859375 C 52.21875 -10.328125 50.660156 -6.503906 47.546875 -3.390625 C 44.429688 -0.273438 40.609375 1.28125 36.078125 1.28125 C 31.554688 1.28125 27.738281 -0.273438 24.625 -3.390625 C 21.507812 -6.503906 19.953125 -10.328125 19.953125 -14.859375 L 19.953125 -86.171875 L 13.578125 -86.171875 C 9.898438 -86.171875 6.753906 -87.441406 4.140625 -89.984375 C 1.523438 -92.535156 0.21875 -95.648438 0.21875 -99.328125 Z M 0.21875 -99.328125 "/></g></g></g></svg>