<svg xmlns="http://www.w3.org/2000/svg" xmlns:xlink="http://www.w3.org/1999/xlink" width="200" zoomAndPan="magnify" viewBox="0 0 150 149.999998" height="200" preserveAspectRatio="xMidYMid meet" version="1.0"><defs><clipPath id="f1ddc394df"><path d="M 38.867188 39.453125 L 61.914062 39.453125 L 61.914062 73.242188 L 38.867188 73.242188 Z M 38.867188 39.453125 " clip-rule="nonzero"/></clipPath><clipPath id="fe9986947a"><path d="M 5.5625 61.03125 L 39.640625 26.953125 L 72.375 59.683594 L 38.296875 93.761719 Z M 5.5625 61.03125 " clip-rule="nonzero"/></clipPath><clipPath id="fa4ce5510d"><path d="M 5.5625 61.03125 L 39.640625 26.953125 L 72.375 59.683594 L 38.296875 93.761719 Z M 5.5625 61.03125 " clip-rule="nonzero"/></clipPath><clipPath id="0bb17605cc"><path d="M 5.5625 61.03125 L 39.640625 26.953125 L 72.375 59.683594 L 38.296875 93.761719 Z M 5.5625 61.03125 " clip-rule="nonzero"/></clipPath><clipPath id="13e556c911"><path d="M 5.46875 50 L 47.265625 50 L 47.265625 80.859375 L 5.46875 80.859375 Z M 5.46875 50 " clip-rule="nonzero"/></clipPath><clipPath id="03cd904981"><path d="M 5.5625 61.03125 L 39.640625 26.953125 L 72.375 59.683594 L 38.296875 93.761719 Z M 5.5625 61.03125 " clip-rule="nonzero"/></clipPath><clipPath id="6ae91df62b"><path d="M 5.5625 61.03125 L 39.640625 26.953125 L 72.375 59.683594 L 38.296875 93.761719 Z M 5.5625 61.03125 " clip-rule="nonzero"/></clipPath><clipPath id="d1e11a07c6"><path d="M 5.5625 61.03125 L 39.640625 26.953125 L 72.375 59.683594 L 38.296875 93.761719 Z M 5.5625 61.03125 " clip-rule="nonzero"/></clipPath></defs><g clip-path="url(#f1ddc394df)"><g clip-path="url(#fe9986947a)"><g clip-path="url(#fa4ce5510d)"><g clip-path="url(#0bb17605cc)"><path fill="#c5fd2a" d="M 61.523438 58.804688 C 59.917969 47.265625 40.605469 39.582031 40.605469 39.582031 C 40.605469 39.582031 42.835938 49.898438 40.152344 56.089844 C 38.359375 60.222656 36.0625 73.457031 51.839844 73.039062 C 52.007812 73.035156 52.179688 73.027344 52.355469 73.015625 C 54.261719 67.085938 56.15625 53.867188 41.84375 41.078125 C 41.84375 41.078125 59.976562 53.8125 53.292969 72.910156 C 57.535156 72.273438 62.960938 69.109375 61.523438 58.804688 " fill-opacity="1" fill-rule="nonzero"/></g></g></g></g><g clip-path="url(#13e556c911)"><g clip-path="url(#03cd904981)"><g clip-path="url(#6ae91df62b)"><g clip-path="url(#d1e11a07c6)"><path fill="#c5fd2a" d="M 37.101562 61.707031 C 30.175781 58.605469 20.625 57.101562 8.035156 60.699219 C 8.035156 60.699219 23.121094 54.40625 37.363281 60.3125 C 37.601562 59.269531 37.902344 58.367188 38.191406 57.699219 C 39.019531 55.785156 39.378906 53.476562 39.480469 51.199219 C 25.980469 46.191406 5.585938 61.015625 5.585938 61.015625 C 5.585938 61.015625 18.171875 65.609375 22.992188 72.675781 C 26.003906 77.09375 37.273438 87.386719 47.117188 74.574219 C 37.503906 73.71875 36.363281 66.742188 37.101562 61.707031 " fill-opacity="1" fill-rule="nonzero"/></g></g></g></g><path fill="#ffffff" d="M 45.644531 86.449219 C 45.644531 84.75 45.933594 83.140625 46.511719 81.625 C 47.09375 80.105469 47.90625 78.777344 48.949219 77.648438 C 49.992188 76.515625 51.242188 75.621094 52.703125 74.964844 C 54.160156 74.308594 55.757812 73.980469 57.488281 73.980469 C 59.511719 73.980469 61.246094 74.34375 62.691406 75.074219 C 64.136719 75.804688 65.328125 76.738281 66.265625 77.871094 C 67.207031 79 67.898438 80.242188 68.34375 81.597656 C 68.792969 82.953125 69.015625 84.257812 69.015625 85.511719 C 69.015625 86.492188 68.710938 87.285156 68.097656 87.878906 C 67.488281 88.476562 66.734375 88.773438 65.84375 88.773438 L 52.390625 88.773438 C 52.71875 90.324219 53.394531 91.492188 54.421875 92.28125 C 55.453125 93.070312 56.726562 93.464844 58.246094 93.464844 C 59.199219 93.464844 60.070312 93.324219 60.859375 93.039062 C 61.648438 92.757812 62.386719 92.363281 63.070312 91.855469 C 63.308594 91.675781 63.554688 91.542969 63.808594 91.453125 C 64.0625 91.363281 64.367188 91.320312 64.726562 91.320312 C 65.5 91.320312 66.132812 91.570312 66.625 92.078125 C 67.117188 92.585938 67.363281 93.226562 67.363281 94 C 67.363281 94.449219 67.273438 94.835938 67.09375 95.164062 C 66.914062 95.492188 66.707031 95.773438 66.46875 96.011719 C 65.425781 96.90625 64.226562 97.613281 62.871094 98.136719 C 61.515625 98.65625 59.945312 98.917969 58.15625 98.917969 C 56.367188 98.917969 54.707031 98.621094 53.171875 98.023438 C 51.636719 97.429688 50.3125 96.578125 49.195312 95.476562 C 48.078125 94.371094 47.207031 93.0625 46.578125 91.542969 C 45.953125 90.023438 45.644531 88.355469 45.644531 86.535156 Z M 52.300781 84.527344 L 62.535156 84.527344 C 62.328125 83.007812 61.789062 81.78125 60.925781 80.84375 C 60.0625 79.902344 58.917969 79.433594 57.488281 79.433594 C 56.054688 79.433594 54.902344 79.894531 54.023438 80.816406 C 53.144531 81.742188 52.570312 82.976562 52.300781 84.527344 Z M 52.300781 84.527344 " fill-opacity="1" fill-rule="nonzero"/><path fill="#ffffff" d="M 80.949219 73.980469 C 82.765625 73.980469 84.328125 74.210938 85.636719 74.671875 C 86.949219 75.132812 88.113281 75.796875 89.125 76.660156 C 89.363281 76.839844 89.601562 77.125 89.839844 77.511719 C 90.078125 77.898438 90.199219 78.390625 90.199219 78.988281 C 90.199219 79.851562 89.898438 80.570312 89.304688 81.152344 C 88.707031 81.734375 87.980469 82.023438 87.113281 82.023438 C 86.667969 82.023438 86.28125 81.949219 85.953125 81.800781 C 85.625 81.652344 85.355469 81.503906 85.148438 81.355469 C 84.554688 80.878906 83.921875 80.503906 83.25 80.238281 C 82.578125 79.96875 81.796875 79.835938 80.902344 79.835938 C 80.066406 79.835938 79.292969 80.007812 78.578125 80.351562 C 77.863281 80.691406 77.246094 81.160156 76.722656 81.757812 C 76.203125 82.351562 75.800781 83.042969 75.519531 83.832031 C 75.234375 84.621094 75.09375 85.464844 75.09375 86.359375 L 75.09375 86.449219 C 75.09375 87.371094 75.234375 88.238281 75.519531 89.042969 C 75.800781 89.847656 76.210938 90.546875 76.746094 91.140625 C 77.28125 91.738281 77.921875 92.207031 78.667969 92.546875 C 79.414062 92.890625 80.246094 93.0625 81.171875 93.0625 C 82.066406 93.0625 82.878906 92.921875 83.605469 92.636719 C 84.335938 92.355469 85.015625 91.945312 85.640625 91.410156 C 85.816406 91.261719 86.0625 91.117188 86.375 90.984375 C 86.691406 90.851562 87.054688 90.785156 87.472656 90.785156 C 88.277344 90.785156 88.953125 91.066406 89.503906 91.632812 C 90.054688 92.199219 90.332031 92.882812 90.332031 93.6875 C 90.332031 94.136719 90.242188 94.539062 90.0625 94.894531 C 89.886719 95.25 89.648438 95.5625 89.347656 95.832031 C 88.335938 96.757812 87.160156 97.5 85.816406 98.070312 C 84.476562 98.632812 82.824219 98.917969 80.859375 98.917969 C 79.070312 98.917969 77.410156 98.589844 75.875 97.933594 C 74.339844 97.277344 73.023438 96.390625 71.921875 95.273438 C 70.816406 94.15625 69.953125 92.847656 69.328125 91.34375 C 68.703125 89.839844 68.390625 88.234375 68.390625 86.535156 L 68.390625 86.449219 C 68.390625 84.75 68.703125 83.140625 69.328125 81.625 C 69.953125 80.105469 70.816406 78.777344 71.921875 77.648438 C 73.023438 76.515625 74.347656 75.621094 75.898438 74.964844 C 77.445312 74.308594 79.128906 73.980469 80.949219 73.980469 Z M 80.949219 73.980469 " fill-opacity="1" fill-rule="nonzero"/><path fill="#ffffff" d="M 102.261719 73.980469 C 104.109375 73.980469 105.824219 74.300781 107.402344 74.941406 C 108.984375 75.582031 110.34375 76.460938 111.492188 77.578125 C 112.640625 78.695312 113.539062 80.003906 114.195312 81.511719 C 114.851562 83.015625 115.179688 84.632812 115.179688 86.359375 L 115.179688 86.449219 C 115.179688 88.175781 114.851562 89.792969 114.195312 91.296875 C 113.539062 92.800781 112.632812 94.121094 111.46875 95.253906 C 110.308594 96.382812 108.9375 97.277344 107.359375 97.933594 C 105.78125 98.589844 104.050781 98.917969 102.175781 98.917969 C 100.328125 98.917969 98.613281 98.597656 97.035156 97.957031 C 95.457031 97.316406 94.09375 96.4375 92.945312 95.320312 C 91.796875 94.203125 90.898438 92.894531 90.242188 91.390625 C 89.585938 89.882812 89.257812 88.265625 89.257812 86.535156 L 89.257812 86.449219 C 89.257812 84.722656 89.585938 83.105469 90.242188 81.601562 C 90.898438 80.097656 91.804688 78.777344 92.96875 77.648438 C 94.128906 76.515625 95.5 75.621094 97.082031 74.964844 C 98.660156 74.308594 100.386719 73.980469 102.261719 73.980469 Z M 102.261719 93.0625 C 103.246094 93.0625 104.121094 92.890625 104.878906 92.546875 C 105.640625 92.207031 106.285156 91.738281 106.820312 91.140625 C 107.359375 90.546875 107.769531 89.851562 108.050781 89.0625 C 108.335938 88.273438 108.476562 87.433594 108.476562 86.535156 L 108.476562 86.449219 C 108.476562 85.554688 108.328125 84.714844 108.027344 83.925781 C 107.730469 83.136719 107.300781 82.433594 106.734375 81.824219 C 106.167969 81.214844 105.503906 80.730469 104.742188 80.371094 C 103.984375 80.015625 103.128906 79.835938 102.175781 79.835938 C 101.191406 79.835938 100.320312 80.007812 99.558594 80.351562 C 98.800781 80.691406 98.152344 81.160156 97.613281 81.757812 C 97.078125 82.351562 96.671875 83.042969 96.386719 83.832031 C 96.105469 84.621094 95.964844 85.464844 95.964844 86.359375 L 95.964844 86.449219 C 95.964844 87.339844 96.113281 88.183594 96.410156 88.976562 C 96.707031 89.765625 97.140625 90.464844 97.707031 91.074219 C 98.273438 91.683594 98.941406 92.167969 99.714844 92.527344 C 100.488281 92.882812 101.339844 93.0625 102.261719 93.0625 Z M 102.261719 93.0625 " fill-opacity="1" fill-rule="nonzero"/><path fill="#ffffff" d="M 114.910156 94.761719 C 114.910156 93.6875 115.277344 92.789062 116.007812 92.058594 C 116.738281 91.328125 117.667969 90.960938 118.800781 90.960938 C 119.933594 90.960938 120.863281 91.328125 121.589844 92.058594 C 122.320312 92.789062 122.6875 93.6875 122.6875 94.761719 L 122.6875 94.851562 C 122.6875 95.921875 122.320312 96.824219 121.589844 97.554688 C 120.863281 98.285156 119.933594 98.648438 118.800781 98.648438 C 117.667969 98.648438 116.738281 98.285156 116.007812 97.554688 C 115.277344 96.824219 114.910156 95.921875 114.910156 94.851562 Z M 114.910156 94.761719 " fill-opacity="1" fill-rule="nonzero"/><path fill="#c5fd2a" d="M 112.457031 69.023438 C 112.457031 68.308594 112.710938 67.691406 113.222656 67.179688 C 113.734375 66.667969 114.347656 66.414062 115.066406 66.414062 L 116.3125 66.414062 L 116.3125 65.003906 C 116.3125 62.652344 116.871094 60.878906 117.988281 59.675781 C 119.109375 58.476562 120.84375 57.875 123.195312 57.875 C 123.6875 57.875 124.214844 57.886719 124.769531 57.917969 C 125.320312 57.941406 125.832031 58.039062 126.304688 58.207031 C 126.773438 58.371094 127.160156 58.640625 127.460938 59.015625 C 127.765625 59.386719 127.917969 59.90625 127.917969 60.566406 C 127.917969 61.285156 127.667969 61.902344 127.167969 62.410156 C 126.671875 62.921875 126.066406 63.175781 125.347656 63.175781 L 124.8125 63.175781 C 123.289062 63.175781 122.527344 63.980469 122.527344 65.582031 L 122.527344 66.453125 L 125.265625 66.453125 C 125.984375 66.453125 126.597656 66.703125 127.109375 67.199219 C 127.621094 67.699219 127.878906 68.308594 127.878906 69.023438 C 127.878906 69.742188 127.621094 70.351562 127.109375 70.851562 C 126.597656 71.347656 125.984375 71.59375 125.265625 71.59375 L 122.613281 71.59375 L 122.613281 85.523438 C 122.613281 86.40625 122.308594 87.15625 121.699219 87.761719 C 121.09375 88.371094 120.347656 88.675781 119.460938 88.675781 C 118.578125 88.675781 117.832031 88.371094 117.222656 87.761719 C 116.617188 87.15625 116.3125 86.40625 116.3125 85.523438 L 116.3125 71.59375 L 115.066406 71.59375 C 114.347656 71.59375 113.734375 71.347656 113.222656 70.851562 C 112.710938 70.351562 112.457031 69.742188 112.457031 69.023438 Z M 112.457031 69.023438 " fill-opacity="1" fill-rule="nonzero"/></svg>