<!DOCTYPE svg PUBLIC "-//W3C//DTD SVG 1.1//EN" "http://www.w3.org/Graphics/SVG/1.1/DTD/svg11.dtd">
<!-- Uploaded to: SVG Repo, www.svgrepo.com, Transformed by: SVG Repo Mixer Tools -->
<svg width="75px" height="75px" viewBox="-2.4 -2.4 28.80 28.80" fill="none" xmlns="http://www.w3.org/2000/svg">
<g id="SVGRepo_bgCarrier" stroke-width="0">
<path transform="translate(-2.4, -2.4), scale(0.8999999999999999)" d="M16,27.916845605242997C19.10663922744881,27.690790368782775,22.302763945590566,28.293448932610985,24.981175093152217,26.703347682981796C28.02077872483976,24.89881609061449,30.736286768458744,22.185459001256007,31.47641673490802,18.728909835052292C32.231039080017005,15.20467847566183,30.86502013702061,11.570492125357365,28.8632286801453,8.5734114588704C26.969039161025528,5.737432332814144,24.010478473900267,3.9623173032701366,20.816001612743236,2.7681443169309166C17.59215534803267,1.5629923346956922,14.153014117966633,0.886381340989406,10.845423962972028,1.8379187314037466C7.3488469733141635,2.8438244174808944,3.758996106069655,4.757995025614955,2.3052963459118114,8.093359158840023C0.9086660687904475,11.297783250635286,3.1198985960757972,14.721630516443083,3.7299966575034205,18.16353264266519C4.339212395166243,21.600457090323655,3.118355573098238,25.923399873668355,5.850775189116877,28.095375130416244C8.581862438825247,30.266291301421276,12.520401239966946,28.17003931809388,16,27.916845605242997" fill="#1C2430" strokewidth="0"/>
</g>
<g id="SVGRepo_tracerCarrier" stroke-linecap="round" stroke-linejoin="round"/>
<g id="SVGRepo_iconCarrier"> <path d="M16.19 2H7.81C4.17 2 2 4.17 2 7.81V16.18C2 19.83 4.17 22 7.81 22H16.18C19.82 22 21.99 19.83 21.99 16.19V7.81C22 4.17 19.83 2 16.19 2ZM19.35 8.84C19.31 8.93 19.26 9.01 19.19 9.08L17.39 10.88C17.24 11.03 17.05 11.1 16.86 11.1C16.67 11.1 16.48 11.03 16.33 10.88C16.04 10.59 16.04 10.11 16.33 9.82L16.85 9.3H16.7C14.6 9.3 12.88 11.01 12.88 13.11V15.07V17.24C12.88 17.65 12.54 17.99 12.13 17.99C11.72 17.99 11.38 17.65 11.38 17.24V15.07V13.11C11.38 11.01 9.67 9.3 7.57 9.3H7.15L7.67 9.82C7.96 10.11 7.96 10.59 7.67 10.88C7.52 11.03 7.33 11.1 7.14 11.1C6.95 11.1 6.76 11.03 6.61 10.88L4.81 9.08C4.52 8.79 4.52 8.31 4.81 8.02L6.61 6.22C6.9 5.93 7.38 5.93 7.67 6.22C7.96 6.51 7.96 6.99 7.67 7.28L7.15 7.8H7.58C9.53 7.8 11.22 8.87 12.14 10.44C13.06 8.87 14.75 7.8 16.71 7.8H16.86L16.34 7.28C16.05 6.99 16.05 6.51 16.34 6.22C16.63 5.93 17.11 5.93 17.4 6.22L19.2 8.02C19.27 8.09 19.32 8.17 19.36 8.26C19.43 8.45 19.43 8.66 19.35 8.84Z" fill="#84BF31"/> </g>
</svg>