<!DOCTYPE svg PUBLIC "-//W3C//DTD SVG 1.1//EN" "http://www.w3.org/Graphics/SVG/1.1/DTD/svg11.dtd">
<!-- Uploaded to: SVG Repo, www.svgrepo.com, Transformed by: SVG Repo Mixer Tools -->
<svg width="75px" height="75px" viewBox="-2.4 -2.4 28.80 28.80" fill="none" xmlns="http://www.w3.org/2000/svg">
<g id="SVGRepo_bgCarrier" stroke-width="0">
<path transform="translate(-2.4, -2.4), scale(0.8999999999999999)" d="M16,28.95432593037977C18.529782422479904,29.342449911827735,21.201052625291254,30.09531855216929,23.546435602557132,29.07080987967561C25.948851741074712,28.021388018637253,28.028041988229088,25.888137136289412,28.773332644537756,23.37468704077251C29.49611977058503,20.937128813490094,27.507496780514266,18.541030621616986,27.422204805647624,16C27.34090076323656,13.577778428148893,29.391095370739336,11.06353816224041,28.287668479339313,8.905711295740572C27.192035900962974,6.763126742238086,24.37645996544266,6.150712386395555,22.0572694831473,5.508501500052407C20.077679061532454,4.960329830253459,18.0055128461083,5.94717189587836,16,5.503112619414049C13.214477014370779,4.886344033775965,10.940571626251252,1.764252993415898,8.167053984258985,2.432939527792346C5.552527389510678,3.0632938118997535,4.1251886449891035,6.079412771334386,3.1746306388762964,8.595269546898843C2.286988253472978,10.944606562876922,2.7015594769871196,13.511619833844286,3.041055526584387,15.999999999999998C3.34516978212587,18.2290447344891,3.8805288195472984,20.400073980889793,5.047591220245199,22.323376157266246C6.198773799173439,24.220508614052903,7.783395568029624,25.794369336666957,9.681679089389299,26.94365283570258C11.605114097509526,28.108163874979088,13.777518795145316,28.61334868021931,16,28.95432593037977" fill="#84BF31 " strokewidth="0"/>
</g>
<g id="SVGRepo_tracerCarrier" stroke-linecap="round" stroke-linejoin="round"/>
<g id="SVGRepo_iconCarrier"> <path d="M5 15C3.98 15 3.04 15.39 2.33 16.03C2.17 16.17 2.02 16.32 1.89 16.49C1.33 17.18 1 18.05 1 19C1 21.21 2.8 23 5 23C5.96 23 6.83 22.66 7.52 22.11C8.08 21.64 8.52 21.03 8.76 20.33C8.92 19.92 9 19.47 9 19C9 16.8 7.21 15 5 15ZM7.4 18.23C7.4 18.51 7.18 18.72 6.91 18.72C6.64 18.72 6.42 18.51 6.42 18.23V18.13C6.42 18.02 6.34 17.93 6.23 17.93H4.23C4.33 18.12 4.31 18.35 4.15 18.51C4.06 18.6 3.94 18.65 3.8 18.65C3.68 18.65 3.55 18.6 3.46 18.51L2.74 17.79C2.7 17.75 2.66 17.69 2.63 17.63C2.59 17.51 2.59 17.38 2.63 17.26C2.66 17.21 2.69 17.14 2.74 17.1L3.46 16.39C3.65 16.19 3.96 16.19 4.14 16.39C4.3 16.54 4.32 16.78 4.22 16.96H6.23C6.87 16.96 7.39 17.48 7.39 18.13V18.23H7.4ZM6.2 21.76C6.07 21.76 5.94 21.72 5.85 21.62C5.69 21.47 5.67 21.23 5.77 21.05H3.76C3.12 21.05 2.6 20.53 2.6 19.88V19.78C2.6 19.5 2.82 19.29 3.09 19.29C3.36 19.29 3.58 19.5 3.58 19.78V19.88C3.58 19.99 3.66 20.08 3.77 20.08H5.78C5.68 19.89 5.7 19.66 5.86 19.5C6.05 19.31 6.36 19.31 6.54 19.5L7.26 20.22C7.3 20.26 7.34 20.32 7.37 20.38C7.41 20.5 7.41 20.63 7.37 20.75C7.34 20.8 7.3 20.86 7.26 20.9L6.54 21.61C6.45 21.71 6.32 21.76 6.2 21.76Z" fill="#292D32"/> <path d="M14.85 3.95078V7.75078H13.35V3.95078C13.35 3.68078 13.11 3.55078 12.95 3.55078C12.9 3.55078 12.85 3.56078 12.8 3.58078L4.87 6.57078C4.34 6.77078 4 7.27078 4 7.84078V8.51078C3.09 9.19078 2.5 10.2808 2.5 11.5108V7.84078C2.5 6.65078 3.23 5.59078 4.34 5.17078L12.28 2.17078C12.5 2.09078 12.73 2.05078 12.95 2.05078C13.95 2.05078 14.85 2.86078 14.85 3.95078Z" fill="#292D32"/> <path d="M21.5007 14.5V15.5C21.5007 15.77 21.2907 15.99 21.0107 16H19.5507C19.0207 16 18.5407 15.61 18.5007 15.09C18.4707 14.78 18.5907 14.49 18.7907 14.29C18.9707 14.1 19.2207 14 19.4907 14H21.0007C21.2907 14.01 21.5007 14.23 21.5007 14.5Z" fill="#292D32"/> <path d="M19.48 12.95H20.5C21.05 12.95 21.5 12.5 21.5 11.95V11.51C21.5 9.44 19.81 7.75 17.74 7.75H6.26C5.41 7.75 4.63 8.03 4 8.51C3.09 9.19 2.5 10.28 2.5 11.51V13.29C2.5 13.67 2.9 13.91 3.26 13.79C3.82 13.6 4.41 13.5 5 13.5C8.03 13.5 10.5 15.97 10.5 19C10.5 19.72 10.31 20.51 10.01 21.21C9.85 21.57 10.1 22 10.49 22H17.74C19.81 22 21.5 20.31 21.5 18.24V18.05C21.5 17.5 21.05 17.05 20.5 17.05H19.63C18.67 17.05 17.75 16.46 17.5 15.53C17.3 14.77 17.54 14.03 18.04 13.55C18.41 13.17 18.92 12.95 19.48 12.95ZM14 12.75H9C8.59 12.75 8.25 12.41 8.25 12C8.25 11.59 8.59 11.25 9 11.25H14C14.41 11.25 14.75 11.59 14.75 12C14.75 12.41 14.41 12.75 14 12.75Z" fill="#292D32"/> </g>
</svg>