<svg xmlns="http://www.w3.org/2000/svg" xmlns:xlink="http://www.w3.org/1999/xlink" width="330" zoomAndPan="magnify" viewBox="0 0 247.5 149.999998" height="200" preserveAspectRatio="xMidYMid meet" version="1.0"><defs><g/><clipPath id="44ee2527a0"><path d="M 124.722656 72.203125 L 142.679688 72.203125 L 142.679688 98.53125 L 124.722656 98.53125 Z M 124.722656 72.203125 " clip-rule="nonzero"/></clipPath><clipPath id="9c5230e0db"><path d="M 98.777344 89.015625 L 125.328125 62.464844 L 150.828125 87.964844 L 124.277344 114.515625 Z M 98.777344 89.015625 " clip-rule="nonzero"/></clipPath><clipPath id="a8e78bad9b"><path d="M 98.777344 89.015625 L 125.328125 62.464844 L 150.828125 87.964844 L 124.277344 114.515625 Z M 98.777344 89.015625 " clip-rule="nonzero"/></clipPath><clipPath id="00903737f3"><path d="M 98.777344 89.015625 L 125.328125 62.464844 L 150.828125 87.964844 L 124.277344 114.515625 Z M 98.777344 89.015625 " clip-rule="nonzero"/></clipPath><clipPath id="f59369eb82"><path d="M 98.703125 80.421875 L 131.265625 80.421875 L 131.265625 104.464844 L 98.703125 104.464844 Z M 98.703125 80.421875 " clip-rule="nonzero"/></clipPath><clipPath id="d24707b58c"><path d="M 98.777344 89.015625 L 125.328125 62.464844 L 150.828125 87.964844 L 124.277344 114.515625 Z M 98.777344 89.015625 " clip-rule="nonzero"/></clipPath><clipPath id="5e27c84ed9"><path d="M 98.777344 89.015625 L 125.328125 62.464844 L 150.828125 87.964844 L 124.277344 114.515625 Z M 98.777344 89.015625 " clip-rule="nonzero"/></clipPath><clipPath id="e8fb94bd25"><path d="M 98.777344 89.015625 L 125.328125 62.464844 L 150.828125 87.964844 L 124.277344 114.515625 Z M 98.777344 89.015625 " clip-rule="nonzero"/></clipPath></defs><path fill="#000000" d="M 34.808594 112.378906 L 34.808594 39.105469 C 34.808594 23.882812 47.148438 11.539062 62.371094 11.539062 L 184.613281 11.539062 C 191.925781 11.539062 198.9375 14.445312 204.105469 19.613281 C 209.273438 24.78125 212.179688 31.792969 212.179688 39.105469 L 212.179688 112.378906 C 212.179688 124.570312 202.292969 134.457031 190.097656 134.457031 L 56.886719 134.457031 C 51.03125 134.457031 45.414062 132.132812 41.273438 127.992188 C 37.132812 123.847656 34.808594 118.234375 34.808594 112.378906 Z M 34.808594 112.378906 " fill-opacity="0.85" fill-rule="nonzero"/><g fill="#ffffff" fill-opacity="1"><g transform="translate(58.015052, 66.636472)"><g><path d="M 7.265625 -38.265625 L 13.171875 -38.265625 L 10.984375 -16.671875 C 10.878906 -15.617188 10.757812 -14.609375 10.625 -13.640625 C 10.5 -12.671875 10.398438 -11.804688 10.328125 -11.046875 C 10.222656 -10.128906 10.132812 -9.269531 10.0625 -8.46875 L 10.21875 -8.46875 L 17.828125 -38.265625 L 23.84375 -38.265625 L 20.609375 -8.46875 L 20.78125 -8.46875 C 20.78125 -8.46875 20.832031 -8.710938 20.9375 -9.203125 C 21.050781 -9.703125 21.195312 -10.316406 21.375 -11.046875 C 21.5625 -11.773438 21.765625 -12.566406 21.984375 -13.421875 C 22.203125 -14.273438 22.421875 -15.085938 22.640625 -15.859375 L 28.484375 -38.265625 L 34.609375 -38.265625 L 23.234375 0 L 15.796875 0 L 17.765625 -17.5 C 17.835938 -18.375 17.9375 -19.363281 18.0625 -20.46875 C 18.195312 -21.582031 18.335938 -22.632812 18.484375 -23.625 C 18.628906 -24.789062 18.773438 -25.9375 18.921875 -27.0625 L 18.75 -27.0625 C 18.457031 -25.9375 18.164062 -24.789062 17.875 -23.625 C 17.625 -22.632812 17.367188 -21.582031 17.109375 -20.46875 C 16.859375 -19.363281 16.625 -18.375 16.40625 -17.5 L 11.96875 0 L 4.375 0 Z M 7.265625 -38.265625 "/></g></g></g><g fill="#ffffff" fill-opacity="1"><g transform="translate(85.352325, 66.636472)"><g><path d="M 8.90625 -38.265625 L 20.671875 -38.265625 L 19.625 -32.53125 L 13.890625 -32.53125 L 12.078125 -22.140625 L 17.28125 -22.140625 L 16.234375 -16.40625 L 11.046875 -16.40625 L 9.1875 -5.734375 L 15.203125 -5.734375 L 14.21875 0 L 2.1875 0 Z M 8.90625 -38.265625 "/></g></g></g><g fill="#ffffff" fill-opacity="1"><g transform="translate(99.567658, 66.636472)"><g><path d="M 8.90625 -38.265625 L 14.921875 -38.265625 L 9.1875 -5.734375 L 15.203125 -5.734375 L 14.21875 0 L 2.1875 0 Z M 8.90625 -38.265625 "/></g></g></g><g fill="#ffffff" fill-opacity="1"><g transform="translate(112.689501, 66.636472)"><g><path d="M 10.171875 0.546875 C 7.941406 0.546875 6.222656 -0.078125 5.015625 -1.328125 C 3.816406 -2.585938 3.21875 -4.296875 3.21875 -6.453125 C 3.21875 -7.179688 3.3125 -8.054688 3.5 -9.078125 L 7.265625 -30.5 C 7.523438 -31.957031 7.925781 -33.210938 8.46875 -34.265625 C 9.019531 -35.328125 9.660156 -36.195312 10.390625 -36.875 C 11.117188 -37.550781 11.925781 -38.039062 12.8125 -38.34375 C 13.707031 -38.65625 14.628906 -38.8125 15.578125 -38.8125 C 17.910156 -38.8125 19.671875 -38.144531 20.859375 -36.8125 C 22.046875 -35.488281 22.640625 -33.804688 22.640625 -31.765625 C 22.640625 -31.066406 22.546875 -30.207031 22.359375 -29.1875 L 21.65625 -25.421875 L 15.640625 -25.421875 L 16.515625 -30.171875 C 16.585938 -30.429688 16.625 -30.671875 16.625 -30.890625 C 16.625 -31.109375 16.625 -31.304688 16.625 -31.484375 C 16.625 -32.179688 16.492188 -32.664062 16.234375 -32.9375 C 15.984375 -33.207031 15.691406 -33.34375 15.359375 -33.34375 C 14.847656 -33.34375 14.410156 -33.160156 14.046875 -32.796875 C 13.679688 -32.429688 13.410156 -31.664062 13.234375 -30.5 L 9.296875 -7.921875 C 9.179688 -7.378906 9.125 -6.941406 9.125 -6.609375 C 9.125 -6.023438 9.242188 -5.597656 9.484375 -5.328125 C 9.722656 -5.054688 10.023438 -4.921875 10.390625 -4.921875 C 10.785156 -4.921875 11.191406 -5.082031 11.609375 -5.40625 C 12.035156 -5.738281 12.359375 -6.523438 12.578125 -7.765625 L 13.609375 -13.671875 L 19.625 -13.671875 L 18.59375 -7.921875 C 18.113281 -5.296875 17.171875 -3.226562 15.765625 -1.71875 C 14.367188 -0.207031 12.503906 0.546875 10.171875 0.546875 Z M 10.171875 0.546875 "/></g></g></g><g fill="#ffffff" fill-opacity="1"><g transform="translate(130.458687, 66.636472)"><g><path d="M 10.5 0.546875 C 8.3125 0.546875 6.550781 -0.0507812 5.21875 -1.25 C 3.882812 -2.457031 3.21875 -4.265625 3.21875 -6.671875 C 3.21875 -7.066406 3.242188 -7.492188 3.296875 -7.953125 C 3.359375 -8.410156 3.425781 -8.894531 3.5 -9.40625 L 7.21875 -30.234375 C 7.726562 -33.179688 8.75 -35.347656 10.28125 -36.734375 C 11.8125 -38.117188 13.671875 -38.8125 15.859375 -38.8125 C 18.046875 -38.8125 19.800781 -38.207031 21.125 -37 C 22.457031 -35.800781 23.125 -34 23.125 -31.59375 C 23.125 -31.195312 23.097656 -30.769531 23.046875 -30.3125 C 22.992188 -29.851562 22.929688 -29.367188 22.859375 -28.859375 L 19.140625 -8.03125 C 18.628906 -5.082031 17.609375 -2.914062 16.078125 -1.53125 C 14.546875 -0.144531 12.6875 0.546875 10.5 0.546875 Z M 10.875 -4.921875 C 11.382812 -4.921875 11.835938 -5.144531 12.234375 -5.59375 C 12.640625 -6.050781 12.9375 -6.847656 13.125 -7.984375 L 17 -29.953125 C 17.039062 -30.066406 17.078125 -30.273438 17.109375 -30.578125 C 17.148438 -30.890625 17.171875 -31.140625 17.171875 -31.328125 C 17.171875 -32.054688 17.003906 -32.570312 16.671875 -32.875 C 16.347656 -33.1875 15.945312 -33.34375 15.46875 -33.34375 C 14.957031 -33.34375 14.5 -33.113281 14.09375 -32.65625 C 13.695312 -32.207031 13.410156 -31.414062 13.234375 -30.28125 L 9.34375 -8.3125 C 9.3125 -8.195312 9.273438 -7.984375 9.234375 -7.671875 C 9.203125 -7.367188 9.1875 -7.125 9.1875 -6.9375 C 9.1875 -6.207031 9.347656 -5.6875 9.671875 -5.375 C 10.003906 -5.070312 10.40625 -4.921875 10.875 -4.921875 Z M 10.875 -4.921875 "/></g></g></g><g fill="#ffffff" fill-opacity="1"><g transform="translate(149.047993, 66.636472)"><g><path d="M 9.734375 -38.265625 L 16.453125 -38.265625 L 15.796875 -22.140625 C 15.765625 -21.523438 15.738281 -20.890625 15.71875 -20.234375 C 15.695312 -19.578125 15.671875 -18.957031 15.640625 -18.375 C 15.597656 -17.71875 15.5625 -17.0625 15.53125 -16.40625 L 15.6875 -16.40625 C 15.875 -17.0625 16.054688 -17.71875 16.234375 -18.375 C 16.566406 -19.539062 16.96875 -20.796875 17.4375 -22.140625 L 22.75 -38.265625 L 29.6875 -38.265625 L 24.0625 0 L 18.046875 0 L 21.109375 -17.5 C 21.285156 -18.445312 21.484375 -19.546875 21.703125 -20.796875 C 21.921875 -22.054688 22.140625 -23.253906 22.359375 -24.390625 C 22.617188 -25.703125 22.894531 -27.046875 23.1875 -28.421875 L 23.015625 -28.421875 L 15.90625 -6.5625 L 11.8125 -6.5625 L 12.625 -28.421875 L 12.46875 -28.421875 C 12.207031 -27.046875 11.988281 -25.703125 11.8125 -24.390625 C 11.625 -23.253906 11.4375 -22.054688 11.25 -20.796875 C 11.070312 -19.546875 10.894531 -18.445312 10.71875 -17.5 L 7.65625 0 L 1.640625 0 Z M 9.734375 -38.265625 "/></g></g></g><g fill="#ffffff" fill-opacity="1"><g transform="translate(173.651517, 66.636472)"><g><path d="M 8.90625 -38.265625 L 20.671875 -38.265625 L 19.625 -32.53125 L 13.890625 -32.53125 L 12.078125 -22.140625 L 17.28125 -22.140625 L 16.234375 -16.40625 L 11.046875 -16.40625 L 9.1875 -5.734375 L 15.203125 -5.734375 L 14.21875 0 L 2.1875 0 Z M 8.90625 -38.265625 "/></g></g></g><g fill="#ffffff" fill-opacity="1"><g transform="translate(56.132137, 110.797256)"><g><path d="M 10.328125 -32.53125 L 5.953125 -32.53125 L 7 -38.265625 L 21.765625 -38.265625 L 20.71875 -32.53125 L 16.34375 -32.53125 L 10.65625 0 L 4.640625 0 Z M 10.328125 -32.53125 "/></g></g></g><g fill="#ffffff" fill-opacity="1"><g transform="translate(70.34747, 110.797256)"><g><path d="M 10.5 0.546875 C 8.3125 0.546875 6.550781 -0.0507812 5.21875 -1.25 C 3.882812 -2.457031 3.21875 -4.265625 3.21875 -6.671875 C 3.21875 -7.066406 3.242188 -7.492188 3.296875 -7.953125 C 3.359375 -8.410156 3.425781 -8.894531 3.5 -9.40625 L 7.21875 -30.234375 C 7.726562 -33.179688 8.75 -35.347656 10.28125 -36.734375 C 11.8125 -38.117188 13.671875 -38.8125 15.859375 -38.8125 C 18.046875 -38.8125 19.800781 -38.207031 21.125 -37 C 22.457031 -35.800781 23.125 -34 23.125 -31.59375 C 23.125 -31.195312 23.097656 -30.769531 23.046875 -30.3125 C 22.992188 -29.851562 22.929688 -29.367188 22.859375 -28.859375 L 19.140625 -8.03125 C 18.628906 -5.082031 17.609375 -2.914062 16.078125 -1.53125 C 14.546875 -0.144531 12.6875 0.546875 10.5 0.546875 Z M 10.875 -4.921875 C 11.382812 -4.921875 11.835938 -5.144531 12.234375 -5.59375 C 12.640625 -6.050781 12.9375 -6.847656 13.125 -7.984375 L 17 -29.953125 C 17.039062 -30.066406 17.078125 -30.273438 17.109375 -30.578125 C 17.148438 -30.890625 17.171875 -31.140625 17.171875 -31.328125 C 17.171875 -32.054688 17.003906 -32.570312 16.671875 -32.875 C 16.347656 -33.1875 15.945312 -33.34375 15.46875 -33.34375 C 14.957031 -33.34375 14.5 -33.113281 14.09375 -32.65625 C 13.695312 -32.207031 13.410156 -31.414062 13.234375 -30.28125 L 9.34375 -8.3125 C 9.3125 -8.195312 9.273438 -7.984375 9.234375 -7.671875 C 9.203125 -7.367188 9.1875 -7.125 9.1875 -6.9375 C 9.1875 -6.207031 9.347656 -5.6875 9.671875 -5.375 C 10.003906 -5.070312 10.40625 -4.921875 10.875 -4.921875 Z M 10.875 -4.921875 "/></g></g></g><g fill="#ffffff" fill-opacity="1"><g transform="translate(88.936779, 110.797256)"><g><path d="M 5.359375 0.546875 C 4.296875 0.546875 3.484375 0.253906 2.921875 -0.328125 C 2.359375 -0.910156 2.078125 -1.617188 2.078125 -2.453125 C 2.078125 -3.546875 2.40625 -4.445312 3.0625 -5.15625 C 3.71875 -5.875 4.570312 -6.234375 5.625 -6.234375 C 6.6875 -6.234375 7.5 -5.941406 8.0625 -5.359375 C 8.625 -4.773438 8.90625 -4.0625 8.90625 -3.21875 C 8.90625 -2.125 8.578125 -1.222656 7.921875 -0.515625 C 7.265625 0.191406 6.410156 0.546875 5.359375 0.546875 Z M 5.359375 0.546875 "/></g></g></g><g fill="#ffffff" fill-opacity="1"><g transform="translate(97.907116, 110.797256)"><g/></g></g><g fill="#ffffff" fill-opacity="1"><g transform="translate(104.467979, 110.797256)"><g/></g></g><g fill="#ffffff" fill-opacity="1"><g transform="translate(111.028843, 110.797256)"><g/></g></g><g fill="#ffffff" fill-opacity="1"><g transform="translate(117.589705, 110.797256)"><g/></g></g><g fill="#ffffff" fill-opacity="1"><g transform="translate(124.15057, 110.797256)"><g/></g></g><g fill="#ffffff" fill-opacity="1"><g transform="translate(130.711434, 110.797256)"><g/></g></g><g fill="#ffffff" fill-opacity="1"><g transform="translate(137.272298, 110.797256)"><g/></g></g><g fill="#ffffff" fill-opacity="1"><g transform="translate(143.833162, 110.797256)"><g/></g></g><g fill="#ffffff" fill-opacity="1"><g transform="translate(150.394023, 110.797256)"><g/></g></g><g fill="#ffffff" fill-opacity="1"><g transform="translate(156.954884, 110.797256)"><g/></g></g><g fill="#ffffff" fill-opacity="1"><g transform="translate(163.515745, 110.797256)"><g/></g></g><g fill="#ffffff" fill-opacity="1"><g transform="translate(170.076607, 110.797256)"><g/></g></g><g fill="#ffffff" fill-opacity="1"><g transform="translate(176.637468, 110.797256)"><g/></g></g><g fill="#ffffff" fill-opacity="1"><g transform="translate(183.198329, 110.797256)"><g/></g></g><g clip-path="url(#44ee2527a0)"><g clip-path="url(#9c5230e0db)"><g clip-path="url(#a8e78bad9b)"><g clip-path="url(#00903737f3)"><path fill="#80cc28" d="M 142.375 87.28125 C 141.125 78.289062 126.074219 72.304688 126.074219 72.304688 C 126.074219 72.304688 127.816406 80.34375 125.722656 85.164062 C 124.328125 88.386719 122.539062 98.695312 134.828125 98.371094 C 134.960938 98.371094 135.097656 98.363281 135.234375 98.351562 C 136.71875 93.734375 138.191406 83.433594 127.042969 73.46875 C 127.042969 73.46875 141.171875 83.390625 135.960938 98.269531 C 139.265625 97.773438 143.492188 95.308594 142.375 87.28125 " fill-opacity="1" fill-rule="nonzero"/></g></g></g></g><g clip-path="url(#f59369eb82)"><g clip-path="url(#d24707b58c)"><g clip-path="url(#5e27c84ed9)"><g clip-path="url(#e8fb94bd25)"><path fill="#27963c" d="M 123.347656 89.542969 C 117.949219 87.125 110.511719 85.953125 100.699219 88.757812 C 100.699219 88.757812 112.457031 83.851562 123.550781 88.453125 C 123.734375 87.640625 123.972656 86.9375 124.195312 86.417969 C 124.84375 84.929688 125.121094 83.128906 125.199219 81.355469 C 114.683594 77.453125 98.792969 89.003906 98.792969 89.003906 C 98.792969 89.003906 108.601562 92.582031 112.355469 98.089844 C 114.703125 101.53125 123.480469 109.546875 131.152344 99.566406 C 123.660156 98.902344 122.769531 93.464844 123.347656 89.542969 " fill-opacity="1" fill-rule="nonzero"/></g></g></g></g><path fill="#ffffff" d="M 130.003906 108.820312 C 130.003906 107.496094 130.226562 106.242188 130.679688 105.058594 C 131.132812 103.875 131.765625 102.84375 132.578125 101.960938 C 133.390625 101.078125 134.363281 100.382812 135.5 99.871094 C 136.640625 99.359375 137.882812 99.105469 139.230469 99.105469 C 140.808594 99.105469 142.15625 99.386719 143.285156 99.957031 C 144.410156 100.527344 145.339844 101.253906 146.070312 102.136719 C 146.804688 103.015625 147.34375 103.984375 147.691406 105.039062 C 148.039062 106.097656 148.214844 107.113281 148.214844 108.089844 C 148.214844 108.855469 147.972656 109.46875 147.496094 109.933594 C 147.023438 110.398438 146.4375 110.632812 145.738281 110.632812 L 135.257812 110.632812 C 135.515625 111.835938 136.042969 112.75 136.84375 113.363281 C 137.644531 113.976562 138.636719 114.285156 139.820312 114.285156 C 140.5625 114.285156 141.242188 114.175781 141.855469 113.953125 C 142.472656 113.734375 143.046875 113.425781 143.582031 113.03125 C 143.765625 112.894531 143.957031 112.789062 144.152344 112.71875 C 144.351562 112.648438 144.589844 112.613281 144.871094 112.613281 C 145.472656 112.613281 145.964844 112.8125 146.347656 113.207031 C 146.730469 113.601562 146.925781 114.101562 146.925781 114.703125 C 146.925781 115.054688 146.855469 115.355469 146.714844 115.609375 C 146.574219 115.867188 146.414062 116.085938 146.226562 116.269531 C 145.414062 116.96875 144.480469 117.519531 143.425781 117.925781 C 142.367188 118.332031 141.144531 118.535156 139.75 118.535156 C 138.359375 118.535156 137.0625 118.300781 135.867188 117.835938 C 134.671875 117.375 133.640625 116.710938 132.769531 115.851562 C 131.898438 114.992188 131.21875 113.972656 130.730469 112.789062 C 130.246094 111.605469 130.003906 110.304688 130.003906 108.886719 Z M 135.191406 107.320312 L 143.164062 107.320312 C 143 106.140625 142.582031 105.183594 141.910156 104.453125 C 141.238281 103.71875 140.34375 103.351562 139.230469 103.351562 C 138.117188 103.351562 137.214844 103.714844 136.53125 104.433594 C 135.847656 105.152344 135.398438 106.113281 135.191406 107.320312 Z M 135.191406 107.320312 " fill-opacity="1" fill-rule="nonzero"/><path fill="#ffffff" d="M 157.507812 99.105469 C 158.925781 99.105469 160.140625 99.285156 161.164062 99.644531 C 162.1875 100.003906 163.09375 100.519531 163.882812 101.195312 C 164.066406 101.332031 164.253906 101.554688 164.4375 101.855469 C 164.625 102.160156 164.714844 102.542969 164.714844 103.003906 C 164.714844 103.679688 164.484375 104.242188 164.019531 104.695312 C 163.554688 105.144531 162.988281 105.371094 162.3125 105.371094 C 161.964844 105.371094 161.664062 105.3125 161.410156 105.199219 C 161.152344 105.082031 160.945312 104.964844 160.78125 104.851562 C 160.316406 104.480469 159.824219 104.1875 159.300781 103.980469 C 158.78125 103.769531 158.171875 103.667969 157.472656 103.667969 C 156.824219 103.667969 156.21875 103.800781 155.660156 104.070312 C 155.105469 104.335938 154.625 104.699219 154.21875 105.164062 C 153.8125 105.628906 153.5 106.167969 153.277344 106.78125 C 153.058594 107.398438 152.949219 108.054688 152.949219 108.75 L 152.949219 108.820312 C 152.949219 109.539062 153.058594 110.210938 153.277344 110.839844 C 153.5 111.464844 153.816406 112.011719 154.234375 112.476562 C 154.652344 112.941406 155.152344 113.304688 155.734375 113.570312 C 156.3125 113.839844 156.960938 113.972656 157.683594 113.972656 C 158.378906 113.972656 159.011719 113.863281 159.578125 113.640625 C 160.148438 113.421875 160.675781 113.101562 161.164062 112.683594 C 161.304688 112.566406 161.496094 112.457031 161.738281 112.355469 C 161.984375 112.25 162.265625 112.199219 162.59375 112.199219 C 163.21875 112.199219 163.746094 112.417969 164.175781 112.859375 C 164.605469 113.300781 164.820312 113.832031 164.820312 114.460938 C 164.820312 114.808594 164.75 115.121094 164.609375 115.402344 C 164.472656 115.679688 164.289062 115.921875 164.054688 116.128906 C 163.265625 116.851562 162.347656 117.429688 161.304688 117.875 C 160.257812 118.3125 158.972656 118.535156 157.441406 118.535156 C 156.046875 118.535156 154.753906 118.277344 153.558594 117.769531 C 152.363281 117.257812 151.335938 116.566406 150.476562 115.695312 C 149.617188 114.824219 148.941406 113.804688 148.453125 112.632812 C 147.96875 111.460938 147.726562 110.210938 147.726562 108.886719 L 147.726562 108.820312 C 147.726562 107.496094 147.96875 106.242188 148.453125 105.058594 C 148.941406 103.875 149.617188 102.84375 150.476562 101.960938 C 151.335938 101.078125 152.367188 100.382812 153.574219 99.871094 C 154.78125 99.359375 156.09375 99.105469 157.507812 99.105469 Z M 157.507812 99.105469 " fill-opacity="1" fill-rule="nonzero"/><path fill="#ffffff" d="M 174.117188 99.105469 C 175.554688 99.105469 176.890625 99.351562 178.121094 99.851562 C 179.351562 100.351562 180.414062 101.035156 181.304688 101.90625 C 182.199219 102.777344 182.902344 103.800781 183.414062 104.972656 C 183.925781 106.144531 184.179688 107.402344 184.179688 108.75 L 184.179688 108.820312 C 184.179688 110.164062 183.925781 111.425781 183.414062 112.597656 C 182.902344 113.769531 182.195312 114.796875 181.289062 115.679688 C 180.382812 116.558594 179.316406 117.257812 178.085938 117.769531 C 176.855469 118.277344 175.511719 118.535156 174.046875 118.535156 C 172.609375 118.535156 171.273438 118.285156 170.042969 117.785156 C 168.8125 117.285156 167.75 116.601562 166.855469 115.730469 C 165.964844 114.859375 165.261719 113.839844 164.75 112.667969 C 164.238281 111.496094 163.984375 110.234375 163.984375 108.886719 L 163.984375 108.820312 C 163.984375 107.472656 164.238281 106.214844 164.75 105.042969 C 165.261719 103.871094 165.96875 102.84375 166.875 101.960938 C 167.78125 101.078125 168.847656 100.382812 170.078125 99.871094 C 171.308594 99.359375 172.65625 99.105469 174.117188 99.105469 Z M 174.117188 113.972656 C 174.882812 113.972656 175.5625 113.839844 176.152344 113.570312 C 176.746094 113.304688 177.25 112.941406 177.667969 112.476562 C 178.085938 112.011719 178.40625 111.472656 178.625 110.855469 C 178.847656 110.242188 178.957031 109.585938 178.957031 108.886719 L 178.957031 108.820312 C 178.957031 108.125 178.839844 107.46875 178.609375 106.851562 C 178.375 106.238281 178.039062 105.691406 177.601562 105.21875 C 177.160156 104.738281 176.640625 104.363281 176.050781 104.085938 C 175.457031 103.804688 174.789062 103.667969 174.046875 103.667969 C 173.28125 103.667969 172.601562 103.800781 172.007812 104.070312 C 171.417969 104.335938 170.914062 104.699219 170.496094 105.164062 C 170.078125 105.628906 169.757812 106.167969 169.539062 106.78125 C 169.320312 107.398438 169.207031 108.054688 169.207031 108.75 L 169.207031 108.820312 C 169.207031 109.515625 169.324219 110.171875 169.554688 110.789062 C 169.789062 111.402344 170.125 111.949219 170.566406 112.421875 C 171.007812 112.898438 171.527344 113.277344 172.132812 113.554688 C 172.734375 113.832031 173.398438 113.972656 174.117188 113.972656 Z M 174.117188 113.972656 " fill-opacity="1" fill-rule="nonzero"/><path fill="#ffffff" d="M 183.972656 115.296875 C 183.972656 114.460938 184.253906 113.757812 184.824219 113.1875 C 185.394531 112.621094 186.117188 112.335938 187 112.335938 C 187.882812 112.335938 188.609375 112.621094 189.175781 113.1875 C 189.746094 113.757812 190.027344 114.460938 190.027344 115.296875 L 190.027344 115.363281 C 190.027344 116.199219 189.746094 116.902344 189.175781 117.472656 C 188.609375 118.042969 187.882812 118.324219 187 118.324219 C 186.117188 118.324219 185.394531 118.042969 184.824219 117.472656 C 184.253906 116.902344 183.972656 116.199219 183.972656 115.363281 Z M 183.972656 115.296875 " fill-opacity="1" fill-rule="nonzero"/><path fill="#80cc28" d="M 182.058594 95.242188 C 182.058594 94.683594 182.257812 94.207031 182.65625 93.808594 C 183.054688 93.410156 183.53125 93.207031 184.09375 93.207031 L 185.0625 93.207031 L 185.0625 92.109375 C 185.0625 90.277344 185.496094 88.898438 186.371094 87.960938 C 187.242188 87.023438 188.59375 86.554688 190.425781 86.554688 C 190.808594 86.554688 191.21875 86.566406 191.652344 86.589844 C 192.082031 86.609375 192.480469 86.683594 192.847656 86.816406 C 193.214844 86.941406 193.515625 87.152344 193.75 87.445312 C 193.984375 87.734375 194.105469 88.140625 194.105469 88.65625 C 194.105469 89.214844 193.910156 89.695312 193.523438 90.089844 C 193.136719 90.488281 192.660156 90.6875 192.101562 90.6875 L 191.683594 90.6875 C 190.5 90.6875 189.90625 91.3125 189.90625 92.5625 L 189.90625 93.238281 L 192.039062 93.238281 C 192.597656 93.238281 193.078125 93.433594 193.472656 93.820312 C 193.875 94.210938 194.074219 94.683594 194.074219 95.242188 C 194.074219 95.804688 193.875 96.277344 193.472656 96.664062 C 193.078125 97.054688 192.597656 97.246094 192.039062 97.246094 L 189.972656 97.246094 L 189.972656 108.097656 C 189.972656 108.789062 189.734375 109.371094 189.261719 109.84375 C 188.785156 110.316406 188.207031 110.554688 187.515625 110.554688 C 186.828125 110.554688 186.246094 110.316406 185.773438 109.84375 C 185.296875 109.371094 185.0625 108.789062 185.0625 108.097656 L 185.0625 97.246094 L 184.09375 97.246094 C 183.53125 97.246094 183.054688 97.054688 182.65625 96.664062 C 182.257812 96.277344 182.058594 95.804688 182.058594 95.242188 Z M 182.058594 95.242188 " fill-opacity="1" fill-rule="nonzero"/></svg>